#!OML:ASF E:/inclinewalkrobotboard/Project1/Captureday1/Session1/subject1.ASF
:FULLY-SPECIFIED
:DEGREES
113
root 0 0 0 14.993802860350172 38.981258149188584 1.1214273389973761
lowerback 13.208953148120322 5.161954562856142 5.808188247217588
upperback -4.092149371952311 7.170761164969592 2.167327865846443
thorax -11.315344787496757 3.3516768252177016 -1.7082165482311664
lowerneck -16.316680653274105 -8.62606967139498 -3.072144648532782
upperneck 25.550342867571434 -13.80929390380914 3.5578207340487134
head 11.069461034488604 -6.1022988790884884 0.2094598429586818
rclavicle -1.227209298444687E-14 -9.300297311660229E-16
rhumerus -32.936846638980285 15.743763370405695 -83.49477145942431
rradius 32.23624261512218
rwrist 8.769824857591878
rhand -18.924713177617736 -4.215854336063341
rfingers 7.125019999999963
rthumb 7.4584017779604626 -34.21482462658068
lclavicle 8.7616767823002265E-16 4.850770961326747E-15
lhumerus -48.05738119612787 19.99650734168791 66.15435424497689
lradius 51.022088713597114
lwrist -12.261925069803347
lhand -14.09045736804581 17.116868012618635
lfingers 7.125019999999913
lthumb 12.063097423485106 46.35740648129032
rfemur -6.111010666999555 19.541857899103718 37.74620247697968
rtibia -1.547087073317428
rfoot 4.900461405235639 -27.337245953865484
rtoes -34.812153888586714
lfemur -40.45068325914285 -19.39168234429799 -20.466157641019972
ltibia 26.35628473442936
lfoot -29.184531910502006 -5.389676764218748
ltoes -43.7185139449093
114
root 0 0 0 14.992299808918204 38.96634345173718 1.1103616916250467
lowerback 13.186635570497062 5.168601790064183 5.815236442823664
upperback -4.102221172818329 7.18048414578614 2.159020515069146
thorax -11.315004474393458 3.355564158848533 -1.7229173443313144
lowerneck -16.31121912504703 -8.605393952702983 -3.0481894436460104
upperneck 25.57083587512002 -13.781816317929314 3.5439880622282462
head 11.076571306150955 -6.0871640786049985 0.20381645027904005
rclavicle -1.2282925053410949E-14 -8.369560113558358E-16
rhumerus -32.94057752238299 15.690168449365567 -83.45413321811665
rradius 32.12080626736198
rwrist 8.761054996195185
rhand -18.940391849943264 -4.273842722215349
rfingers 7.125019999999964
rthumb 7.44343936472338 -34.27402069457269
lclavicle 9.169228852833539E-16 4.932845607392096E-15
lhumerus -48.03903971632293 20.0555598699516 66.10405855155614
lradius 50.9873062895407
lwrist -12.28941521864947
lhand -14.079729165660732 17.107125106974493
lfingers 7.125019999999914
lthumb 12.073477895919785 46.34702775462201
rfemur -6.233929764963647 19.637193349450797 37.72290583588793
rtibia -1.5791454145646675
rfoot 4.833244722410271 -27.365680264322123
rtoes -34.78425821121141
lfemur -40.215730795900086 -19.458711961704957 -20.508521565044905
ltibia 26.109287925404605
lfoot -29.12042756301591 -5.362215212330776
ltoes -43.6796964237444
115
root 0 0 0 14.998718551364234 38.949840289179186 1.1069077692084597
lowerback 13.178055401875405 5.171746810444029 5.819104433880198
upperback -4.1068546759046125 7.184913150384913 2.1545800215814004
thorax -11.316053578018135 3.3572546306842797 -1.7309181664176911
lowerneck -16.311257652575037 -8.59029023030783 -3.0331735010766137
upperneck 25.57937389683257 -13.760888451576863 3.5294338438721695
head 11.079836021638204 -6.076797396740813 0.198509733419866
rclavicle -1.228939770773123E-14 -7.703665847778648E-16
rhumerus -32.92895968763357 15.657278099457118 -83.42429342101838
rradius 32.044308730871776
rwrist 8.745170333373657
rhand -18.9539141900017 -4.3203580507199835
rfingers 7.125019999999964
rthumb 7.430471795799698 -34.32161561400008
lclavicle 9.479640202179013E-16 4.9830812782606795E-15
lhumerus -48.01713861864583 20.10054678445362 66.06293251474165
lradius 50.9677241629761
lwrist -12.31168599569395
lhand -14.075708453219535 17.098161528949728
lfingers 7.125019999999914
lthumb 12.077418124411256 46.33778086766808
rfemur -6.386142763092808 19.73642835010299 37.716901950082814
rtibia -1.5779043858156392
rfoot 4.734494921211898 -27.380233001910582
rtoes -34.68995049772009
lfemur -40.13056563065077 -19.46865538244309 -20.54068621946732
ltibia 26.063389862159664
lfoot -29.05444589653617 -5.380246677447323
ltoes -43.660282603703024
116
root 0 0 0 15.008152477178639 38.937208872775564 1.107613450713686
lowerback 13.177041777168142 5.172868648416195 5.821465628371205
upperback -4.108359713534295 7.186379548709353 2.152950126585657
thorax -11.317588488102992 3.3577465108458173 -1.7344914387894823
lowerneck -16.313859749002017 -8.580784010878618 -3.025565470755926
upperneck 25.5809539467227 -13.746915295164575 3.516310968449604
head 11.080791311961832 -6.070697102948625 0.19407113353403016
rclavicle -1.2293855495819271E-14 -7.309087459439227E-16
rhumerus -32.905596647705295 15.647266839783772 -83.4046327138424
rradius 32.02088302174367
rwrist 8.710321810416389
rhand -18.967183522195665 -4.3545131323584645
rfingers 7.125019999999964
rthumb 7.417652039566878 -34.35686675342611
lclavicle 9.643143926051675E-16 5.0038270264768995E-15
lhumerus -47.99580070217257 20.12813682200094 66.03568864129372
lradius 50.96468312559289
lwrist -12.324459360440528
lhand -14.077841077282166 17.092092350701876
lfingers 7.125019999999913
lthumb 12.075427007522332 46.33182906983667
rfemur -6.531666136617536 19.82796831080551 37.723482158807684
rtibia -1.559928960446463
rfoot 4.630536575012378 -27.388140722685183
rtoes -34.548058109559186
lfemur -40.16135738768753 -19.437902063796937 -20.56102056483991
ltibia 26.160938885926885
lfoot -28.990926385366866 -5.424066854340863
ltoes -43.661970144037994
